/* XPM */
static char * D:\mparsecsource\ProxyNode_Coin\ProxyNode\share\pixmaps\bitcoin32_xpm[] = {
"32 32 502 2",
"  	c None",
". 	c #1AA0CB",
"+ 	c #1AA1CB",
"@ 	c #1AA1CC",
"# 	c #1AA1CD",
"$ 	c #19A1CD",
"% 	c #19A2CD",
"& 	c #19A2CE",
"* 	c #1BA0CB",
"= 	c #18A2CE",
"- 	c #18A3CF",
"; 	c #1BA0CA",
"> 	c #A2D8F5",
", 	c #9ED7F5",
"' 	c #7ECEF3",
") 	c #97D6F5",
"! 	c #9CD6F4",
"~ 	c #9BD5F4",
"{ 	c #B2DDF6",
"] 	c #18A3D0",
"^ 	c #18A4D0",
"/ 	c #17A4D1",
"( 	c #9CD7F5",
"_ 	c #95D5F5",
": 	c #62C9F3",
"< 	c #2BBEF1",
"[ 	c #73CCF3",
"} 	c #7DCCF3",
"| 	c #96D5F4",
"1 	c #6BC6F1",
"2 	c #4EBDEE",
"3 	c #5DBFEF",
"4 	c #9FD5F3",
"5 	c #97D2F2",
"6 	c #17A4D2",
"7 	c #74CFF4",
"8 	c #9DD7F5",
"9 	c #A1D8F5",
"0 	c #5CC7F2",
"a 	c #A8DEF7",
"b 	c #78C9F1",
"c 	c #95D4F4",
"d 	c #6DC5F0",
"e 	c #52BDEF",
"f 	c #98D2F3",
"g 	c #96D1F2",
"h 	c #95CFF1",
"i 	c #98CFF1",
"j 	c #64B8EB",
"k 	c #17A5D2",
"l 	c #16A5D3",
"m 	c #70CEF4",
"n 	c #9CD6F5",
"o 	c #94D3F4",
"p 	c #FBFDFE",
"q 	c #F2F7FA",
"r 	c #A9DBF5",
"s 	c #9DD6F4",
"t 	c #A6D7F4",
"u 	c #63C0EF",
"v 	c #94D0F1",
"w 	c #94CFF1",
"x 	c #92CCF0",
"y 	c #94CCEF",
"z 	c #66B6E9",
"A 	c #8AC5EC",
"B 	c #16A6D3",
"C 	c #99D5F5",
"D 	c #38C1F2",
"E 	c #A9D9F5",
"F 	c #90D1F3",
"G 	c #FFFFFF",
"H 	c #EBF4F9",
"I 	c #7BCBEF",
"J 	c #12A5E9",
"K 	c #ACD8F3",
"L 	c #60BCED",
"M 	c #92CDF0",
"N 	c #91CBEF",
"O 	c #8EC9EE",
"P 	c #93C9EE",
"Q 	c #2F9AE3",
"R 	c #84BFEA",
"S 	c #81BCE8",
"T 	c #16A6D4",
"U 	c #90D3F3",
"V 	c #88D1F3",
"W 	c #20BAF0",
"X 	c #62C7F1",
"Y 	c #92D2F4",
"Z 	c #9AD4F3",
"` 	c #97D3F3",
" .	c #E2F1F8",
"..	c #5EBBE9",
"+.	c #0099E6",
"@.	c #A7D5F2",
"#.	c #5DB8EC",
"$.	c #8BC6ED",
"%.	c #83C0EB",
"&.	c #53A9E5",
"*.	c #158FDF",
"=.	c #76B4E6",
"-.	c #79B5E4",
";.	c #61A6E1",
">.	c #15A6D5",
",.	c #7DCEF3",
"'.	c #65C8F2",
").	c #A0D5F4",
"!.	c #9DD4F4",
"~.	c #A0D5F3",
"{.	c #71C8F1",
"].	c #5EBFEF",
"^.	c #AAD9F4",
"/.	c #D8EBF3",
"(.	c #88C9ED",
"_.	c #83C8EF",
":.	c #9DCFF0",
"<.	c #59B3E9",
"[.	c #92C9ED",
"}.	c #53AAE6",
"|.	c #5EADE6",
"1.	c #85BCE7",
"2.	c #7DB7E5",
"3.	c #76B1E2",
"4.	c #4B99DE",
"5.	c #5B9FDD",
"6.	c #15A7D6",
"7.	c #93D0F2",
"8.	c #CFE8F8",
"9.	c #73CAF2",
"0.	c #68C4F0",
"a.	c #75C8F0",
"b.	c #60C0EF",
"c.	c #A9D6F3",
"d.	c #78C7F0",
"e.	c #D2E9F3",
"f.	c #94CCEE",
"g.	c #89C8EE",
"h.	c #A1CFEF",
"i.	c #349FE4",
"j.	c #51A8E5",
"k.	c #90C3E9",
"l.	c #49A0E2",
"m.	c #4FA0E0",
"n.	c #4E9BDF",
"o.	c #4D98DD",
"p.	c #72A8DC",
"q.	c #619ED9",
"r.	c #5D99D7",
"s.	c #14A7D6",
"t.	c #14A7D7",
"u.	c #96D0F2",
"v.	c #A9DBF6",
"w.	c #F8FBFC",
"x.	c #00A2E9",
"y.	c #00A2E8",
"z.	c #7EC6EF",
"A.	c #FFFEFE",
"B.	c #D0E8F2",
"C.	c #8DC6EC",
"D.	c #72BCEA",
"E.	c #5AADE7",
"F.	c #5DADE5",
"G.	c #7DB8E6",
"H.	c #71B0E4",
"I.	c #007DDB",
"J.	c #0078DA",
"K.	c #69A5DD",
"L.	c #67A1D9",
"M.	c #0D76D7",
"N.	c #4D8FD5",
"O.	c #538FD2",
"P.	c #14A8D7",
"Q.	c #19A1CC",
"R.	c #90CCF0",
"S.	c #56BEEE",
"T.	c #E5F1F6",
"U.	c #EFF6FA",
"V.	c #FFFDFE",
"W.	c #33AFEA",
"X.	c #2CACE9",
"Y.	c #62B9EC",
"Z.	c #A6D5F2",
"`.	c #FDFEFE",
" +	c #D4E8F2",
".+	c #5FB0E4",
"++	c #2E9BE3",
"@+	c #94C3E9",
"#+	c #4FA2E2",
"$+	c #69ABE2",
"%+	c #4F9CDF",
"&+	c #2D8CDB",
"*+	c #2987D9",
"=+	c #6BA0D7",
"-+	c #4089D6",
";+	c #287DD4",
">+	c #317DD1",
",+	c #4282CE",
"'+	c #4582CC",
")+	c #55BDEE",
"!+	c #62BEED",
"~+	c #97C9EE",
"{+	c #9DCEF0",
"]+	c #D2E5EE",
"^+	c #EEF4F6",
"/+	c #EAF4FB",
"(+	c #8CC4EB",
"_+	c #B6DAF3",
":+	c #FDFDFE",
"<+	c #D5E7EF",
"[+	c #83BDE4",
"}+	c #70B2E5",
"|+	c #4AA0E1",
"1+	c #0F86DD",
"2+	c #61A4DD",
"3+	c #67A3DC",
"4+	c #649FD9",
"5+	c #4B90D7",
"6+	c #3382D4",
"7+	c #508CD0",
"8+	c #4885CE",
"9+	c #4782CB",
"0+	c #3276CB",
"a+	c #276FCB",
"b+	c #13A8D8",
"c+	c #13A8D9",
"d+	c #8DC4EB",
"e+	c #86C1EB",
"f+	c #86C1EA",
"g+	c #84C0E9",
"h+	c #B6D7EC",
"i+	c #CADAE2",
"j+	c #F8F9FA",
"k+	c #DBEEF9",
"l+	c #56AAE5",
"m+	c #9FD0F1",
"n+	c #D7E3E8",
"o+	c #7DB7E2",
"p+	c #4A9DDF",
"q+	c #9CC9EF",
"r+	c #B5D5F2",
"s+	c #6DADE9",
"t+	c #C0D8EF",
"u+	c #5093D9",
"v+	c #4789D2",
"w+	c #4B88CF",
"x+	c #4682CC",
"y+	c #407ECA",
"z+	c #3D79C7",
"A+	c #3875C6",
"B+	c #3873C3",
"C+	c #13A9D9",
"D+	c #85BBE7",
"E+	c #7FBAE7",
"F+	c #7EB9E6",
"G+	c #7CB7E7",
"H+	c #C1D7DF",
"I+	c #EBF0F3",
"J+	c #E0F0FB",
"K+	c #FCFDFE",
"L+	c #FEFDFE",
"M+	c #E9EEF0",
"N+	c #ACCFE9",
"O+	c #ECF4FA",
"P+	c #FCFFFF",
"Q+	c #AAAEB4",
"R+	c #A9AAB0",
"S+	c #959AA4",
"T+	c #D2DDEA",
"U+	c #2C77D1",
"V+	c #4681CA",
"W+	c #3D7AC9",
"X+	c #3876C6",
"Y+	c #3572C5",
"Z+	c #326FC3",
"`+	c #2F6EC1",
" @	c #4AACE5",
".@	c #66AFE4",
"+@	c #75B0E2",
"@@	c #73AFE1",
"#@	c #6DADE1",
"$@	c #8AC3EA",
"%@	c #C0D4DF",
"&@	c #FBFCFC",
"*@	c #FAFBFC",
"=@	c #F5F7F8",
"-@	c #D8DDE1",
";@	c #A2A7B0",
">@	c #C4C8CE",
",@	c #DDD9D3",
"'@	c #4E87D2",
")@	c #3072C7",
"!@	c #3370C3",
"~@	c #2F6DC2",
"{@	c #2C6AC1",
"]@	c #1B60C5",
"^@	c #6FA8DE",
"/@	c #56A4DF",
"(@	c #44A2E0",
"_@	c #2C9DE2",
":@	c #4F9FDD",
"<@	c #649ED9",
"[@	c #C3D6E2",
"}@	c #F0F4F6",
"|@	c #F5F6F8",
"1@	c #AFB7BF",
"2@	c #959BA7",
"3@	c #F9FBFC",
"4@	c #F8F9FB",
"5@	c #EFF4F7",
"6@	c #EDF1F6",
"7@	c #B0C6E0",
"8@	c #2468C3",
"9@	c #0E5ECA",
"0@	c #1D62C5",
"a@	c #1E62C3",
"b@	c #2B67BE",
"c@	c #12AADA",
"d@	c #629DD9",
"e@	c #5F9CD8",
"f@	c #4E99DA",
"g@	c #1A94DF",
"h@	c #6199D6",
"i@	c #5A97D6",
"j@	c #59AFE9",
"k@	c #D8E1E7",
"l@	c #F8FDFF",
"m@	c #ACB1B9",
"n@	c #C3CAD1",
"o@	c #BBC2CA",
"p@	c #F9FEFF",
"q@	c #E0E8F1",
"r@	c #D7E1EB",
"s@	c #D0D9DE",
"t@	c #185BBB",
"u@	c #0E5AC8",
"v@	c #2966BF",
"w@	c #2765BE",
"x@	c #2664BE",
"y@	c #12AADB",
"z@	c #5692D3",
"A@	c #5490D3",
"B@	c #528FD3",
"C@	c #568ED0",
"D@	c #3D8CD6",
"E@	c #3589D5",
"F@	c #3D8FD9",
"G@	c #D8DEE0",
"H@	c #F8FAFB",
"I@	c #EDF4FA",
"J@	c #A7AFB7",
"K@	c #9AA2AA",
"L@	c #AFB4BD",
"M@	c #C3CBD1",
"N@	c #9FACBA",
"O@	c #B0BEC3",
"P@	c #4B80D0",
"Q@	c #2967BE",
"R@	c #2664BD",
"S@	c #4986CE",
"T@	c #4085CF",
"U@	c #2E85D4",
"V@	c #4382CD",
"W@	c #4481CB",
"X@	c #5D91D5",
"Y@	c #ADBEC5",
"Z@	c #EEF3F7",
"`@	c #FEFEFF",
" #	c #EDF4FB",
".#	c #A1A7B0",
"+#	c #9499A2",
"@#	c #CDCFD4",
"##	c #C0C7D0",
"$#	c #C2CFD8",
"%#	c #749BD2",
"&#	c #1B5DC3",
"*#	c #2462BF",
"=#	c #2563BD",
"-#	c #12AADC",
";#	c #2F81D0",
">#	c #337ECD",
",#	c #3D79C8",
"'#	c #357ACA",
")#	c #117DD6",
"!#	c #3E8ADA",
"~#	c #9DA9B0",
"{#	c #DCE8ED",
"]#	c #FAFBFB",
"^#	c #FEFEFE",
"/#	c #F1F8FE",
"(#	c #97A0A7",
"_#	c #B2BAC3",
":#	c #8998A8",
"<#	c #8A95A3",
"[#	c #F5F9FC",
"}#	c #E7EEF2",
"|#	c #A0B8D3",
"1#	c #2161BB",
"2#	c #1E5DBF",
"3#	c #1958C0",
"4#	c #3673C5",
"5#	c #3472C4",
"6#	c #3171C4",
"7#	c #0F77D3",
"8#	c #2867C1",
"9#	c #9FA7A7",
"0#	c #BFD4DE",
"a#	c #ECEFF0",
"b#	c #FCFDFD",
"c#	c #FEFFFF",
"d#	c #838C97",
"e#	c #D4D5D8",
"f#	c #717987",
"g#	c #D0E0EE",
"h#	c #EFF5F9",
"i#	c #D7E6EE",
"j#	c #7D9DC1",
"k#	c #2362BC",
"l#	c #2766BC",
"m#	c #12ABDC",
"n#	c #2E6CC1",
"o#	c #2E6BC1",
"p#	c #206EC8",
"q#	c #2061BD",
"r#	c #758698",
"s#	c #9DBCCC",
"t#	c #CCD6DA",
"u#	c #F9FAFA",
"v#	c #FBFCFD",
"w#	c #F5FCFF",
"x#	c #BFCCD7",
"y#	c #E2EFF7",
"z#	c #EEF4F8",
"A#	c #E8F4F9",
"B#	c #98B3BC",
"C#	c #3C74C9",
"D#	c #11ABDC",
"E#	c #2B68BF",
"F#	c #2A67BE",
"G#	c #1D6AC6",
"H#	c #2967BF",
"I#	c #6787B3",
"J#	c #5E8092",
"K#	c #9FB7C0",
"L#	c #F0F2F2",
"M#	c #FAFBFD",
"N#	c #FAFCFD",
"O#	c #FAFDFD",
"P#	c #E3F1F8",
"Q#	c #96B7C0",
"R#	c #4776C9",
"S#	c #2764BD",
"T#	c #16A5D4",
"U#	c #2765BD",
"V#	c #1C67C5",
"W#	c #457ED2",
"X#	c #536166",
"Y#	c #789DAE",
"Z#	c #D2D9DC",
"`#	c #F8FCFD",
" $	c #DAECF4",
".$	c #80A0AC",
"+$	c #5A87C7",
"@$	c #1C5AC0",
"#$	c #11ABDD",
"$$	c #1B64C4",
"%$	c #2963BB",
"&$	c #135EC2",
"*$	c #7088AA",
"=$	c #4A6676",
"-$	c #9FAFB6",
";$	c #F0F4F5",
">$	c #F8FCFE",
",$	c #D4EAF3",
"'$	c #658593",
")$	c #6889C7",
"!$	c #2564BA",
"~$	c #1A57BF",
"{$	c #15A7D5",
"]$	c #1362C8",
"^$	c #2562BC",
"/$	c #3672CB",
"($	c #5C6468",
"_$	c #58676E",
":$	c #A6B9C1",
"<$	c #DEEDF3",
"[$	c #F4F9FC",
"}$	c #D6ECF5",
"|$	c #557B8D",
"1$	c #829BBB",
"2$	c #1658B8",
"3$	c #1552C0",
"4$	c #6690CD",
"5$	c #303C3F",
"6$	c #1F3D47",
"7$	c #578292",
"8$	c #9DBFCC",
"9$	c #AFC7D1",
"0$	c #698794",
"a$	c #8EA1AE",
"b$	c #0F53B8",
"c$	c #12A9DA",
"                          . + @ @ @ #                           ",
"                    . . . @ @ @ # $ % % & &                     ",
"                * . . . @             = & - - -                 ",
"            ; ; . *       > , ' ) ! ~ {     - ] ^ /             ",
"          ; ; .     ( _ : < [ } | 1 2 3 4 5     / / 6           ",
"        ; . .   7 8 8 8 9 0 a b c d e f g h i j   6 k l         ",
"      ; * .   > m 8 8 n o p q r s t u v w x y z A   l l B       ",
"      * .   n C D E n ~ F G H I J K L M N O P Q R S   T T       ",
"    * .   U ~ V W X Y Z ` G  ...+.@.#.O $.%.&.*.=.-.;.  >.>.    ",
"    . +   ,.'.).!.~.{.].^.G /.(._.:.<.[.}.|.1.2.3.4.5.  >.6.    ",
"  . .   f 7.8.9.0.a.b.c.d.G e.f.g.h.i.j.k.l.m.n.o.p.q.r.  s.t.  ",
"  + @   u.v.w.G c.x.y.z.K A.B.C.D.E.F.G.H.I.J.K.L.M.N.O.  t.P.  ",
"  @ Q.M R.S.T.U.V.W.X.Y.Z.`. +.+++@+#+$+%+&+*+=+-+;+>+,+'+  P.  ",
"@ @   )+!+~+{+]+^+/+%.(+_+:+<+[+}+|+1+2+3+4+5+6+7+8+9+0+a+  b+c+",
"  #   d+e+f+g+h+i+j+k+l+m+`.n+o+p+q+r+s+t+u+v+w+x+y+z+A+B+  C+  ",
"      D+E+F+G.G+H+I+G J+K+L+M+N+O+P+Q+R+S+T+U+V+W+X+Y+Z+`+      ",
"       @.@+@@@#@$@%@&@G G G *@=@G -@;@G G >@,@'@)@!@~@{@]@      ",
"  &   ^@/@(@_@:@<@[@}@G G G G `.|@1@2@3@4@5@6@7@8@9@0@a@b@  c@  ",
"& =   d@e@f@g@h@i@j@k@:+G G G :+l@m@n@o@p@q@r@s@t@u@v@w@x@  c@y@",
"  -   z@A@B@C@D@E@F@G@H@G G G `.I@J@G K@L@M@N@O@P@Q@w@x@R@  y@  ",
"  - ]   S@T@U@V@W@X@Y@Z@`@G G `. #.#G +#G @###$#%#&#*#=#  y@-#  ",
"  ] ]   ;#>#,#'#)#!#~#{#]#`@G ^#/#(#G _#:#<#[#}#|#1#2#3#  -#-#  ",
"    / /   4#5#6#7#8#9#0#a#b#c#c#q d#e#f#g#h#K+i#j#k#=#l#  m#    ",
"    / 6   ~@n#o#p#q#r#s#t#u#G G v#w#x#y#z#p A#B#C#=#=#  D#D#    ",
"      k l   E#F#G#H#I#J#K#L#G G G :+M#N#O#P#Q#R#S#=#  D#D#      ",
"      l l T#  U#V#x@W#X#Y#Z#:+G G G G `# $.$+$@$=#    D##$      ",
"        B T >.  $$%$&$*$=$-$;$c#G G >$,$'$)$!$~$    #$#$        ",
"          >.>.{$  ]$^$/$($_$:$<$[$`#}$|$1$2$3$  D##$#$          ",
"            {$6.s.      4$5$6$7$8$9$0$a$b$    D##$#$            ",
"                P.P.                    m#D#D##$                ",
"                        C+C+c$c@y@y@-#m#D#D##$                  ",
"                        C+c$c@y@y@-#D#D#                        "};
