/* XPM */
static char * D:\mparsecsource\ProxyNode_Coin\ProxyNode\share\pixmaps\bitcoin16_xpm[] = {
"16 16 169 2",
"  	c None",
". 	c #1AA0CB",
"+ 	c #1AA1CC",
"@ 	c #1AA1CD",
"# 	c #19A2CD",
"$ 	c #1BA0CA",
"% 	c #19A0CB",
"& 	c #0F9ECB",
"* 	c #74C4E5",
"= 	c #90D3F5",
"- 	c #6FC3E5",
"; 	c #079DCE",
"> 	c #17A3CF",
", 	c #18A4D1",
"' 	c #139DC8",
") 	c #9DD7F5",
"! 	c #5BC7F2",
"~ 	c #83D0F4",
"{ 	c #7FCCF2",
"] 	c #62C2F0",
"^ 	c #9AD2F2",
"/ 	c #0FA2CF",
"( 	c #17A5D2",
"_ 	c #1BA0CB",
": 	c #ADDDFA",
"< 	c #7CD0F4",
"[ 	c #9DD6F5",
"} 	c #CCEAFA",
"| 	c #C8E7F6",
"1 	c #7ECAF1",
"2 	c #7CC7EF",
"3 	c #92CCF0",
"4 	c #6EB9EA",
"5 	c #91C4ED",
"6 	c #0DA4D2",
"7 	c #16A6D3",
"8 	c #89D0F3",
"9 	c #70CBF2",
"0 	c #7DCBF2",
"a 	c #D5ECFA",
"b 	c #AAD8F0",
"c 	c #69BFED",
"d 	c #78C1EC",
"e 	c #6FB7E9",
"f 	c #5AABE4",
"g 	c #6DAEE2",
"h 	c #5EA2DE",
"i 	c #14A7D5",
"j 	c #1BA1CC",
"k 	c #9CD3F3",
"l 	c #D7EFFB",
"m 	c #55BDEE",
"n 	c #5CBFEE",
"o 	c #CEE9F9",
"p 	c #B3D9EF",
"q 	c #7CBFEC",
"r 	c #57ABE5",
"s 	c #50A4E3",
"t 	c #3B94DD",
"u 	c #4D96DB",
"v 	c #5996D6",
"w 	c #41B3E0",
"x 	c #74C3EE",
"y 	c #D3E7F3",
"z 	c #CAE8F8",
"A 	c #62B7EA",
"B 	c #DAEDFA",
"C 	c #A3CFEA",
"D 	c #5CAAE4",
"E 	c #439ADF",
"F 	c #5199DB",
"G 	c #458FD7",
"H 	c #3F86D2",
"I 	c #3A7ECE",
"J 	c #2F7DCD",
"K 	c #13A8D8",
"L 	c #84BEE9",
"M 	c #8AC0E9",
"N 	c #E0E8EB",
"O 	c #C0E0F6",
"P 	c #E9F4FC",
"Q 	c #B8D4E7",
"R 	c #B5D9F5",
"S 	c #9FB6CF",
"T 	c #A4BCD7",
"U 	c #3B7FCE",
"V 	c #3F7CC9",
"W 	c #3774C5",
"X 	c #5DA9E1",
"Y 	c #53A5E0",
"Z 	c #9DC3E0",
"` 	c #FEFEFD",
" .	c #FFFFFF",
"..	c #DCDFE3",
"+.	c #D3D5DA",
"@.	c #F0F1F3",
"#.	c #B9CBE1",
"$.	c #2067C5",
"%.	c #2566C3",
"&.	c #19A2CE",
"*.	c #499CD4",
"=.	c #5795D6",
"-.	c #4592D7",
";.	c #3E94DB",
">.	c #F0F1F1",
",.	c #FEFFFF",
"'.	c #CBD1D8",
").	c #C8CDD3",
"!.	c #D0D6DE",
"~.	c #C1CAD0",
"{.	c #2164C4",
"].	c #2866BE",
"^.	c #236EC2",
"/.	c #12AADB",
"(.	c #18A3CF",
"_.	c #3983CF",
":.	c #397ECD",
"<.	c #3A85D4",
"[.	c #C7D2D6",
"}.	c #BFC7CF",
"|.	c #DBDEE2",
"1.	c #B9C0C8",
"2.	c #E0E6EA",
"3.	c #5182C9",
"4.	c #1F5EBF",
"5.	c #12ABDC",
"6.	c #16A5D2",
"7.	c #3470C3",
"8.	c #316EC3",
"9.	c #1B6BC8",
"0.	c #9CAFB7",
"a.	c #EEF2F2",
"b.	c #D9DEE3",
"c.	c #B3BCC6",
"d.	c #F0F7FD",
"e.	c #DCE8EA",
"f.	c #3D73C0",
"g.	c #285AB9",
"h.	c #11ACDC",
"i.	c #17A4D3",
"j.	c #2B63BD",
"k.	c #1F65C2",
"l.	c #57779B",
"m.	c #B9CBD2",
"n.	c #D3E3E8",
"o.	c #5181C3",
"p.	c #245FBB",
"q.	c #11AADC",
"r.	c #11ABDD",
"s.	c #16A6D4",
"t.	c #15A5D4",
"u.	c #3770C2",
"v.	c #617177",
"w.	c #E5EEF1",
"x.	c #C0D7E0",
"y.	c #537AB0",
"z.	c #1B50BA",
"A.	c #11ABDC",
"B.	c #15A7D6",
"C.	c #14A9D7",
"D.	c #667D94",
"E.	c #71838A",
"F.	c #C6CFD3",
"G.	c #859BA9",
"H.	c #11AEDD",
"I.	c #11A8D9",
"J.	c #0DA8DA",
"K.	c #0CA9DB",
"L.	c #10AADC",
"            . + @ #             ",
"      $ % & * =   - ; > ,       ",
"    $ '   ) ! ~ { ] ^   / (     ",
"  _ ' : < [ } | 1 2 3 4 5 6 7   ",
"  %   8 9 0 a b c d e f g h i   ",
"  j k l m n o p q r s t u v     ",
"+ w x y z A B C D E F G H I J K ",
"    L M N O P Q R S T U V W     ",
"    X Y Z `  .` ..+.@.#.$.%.    ",
"&.*.=.-.;.>. .,.'.).!.~.{.].^./.",
"(.  _.:.<.[. . .}.|.1.2.3.4.  5.",
"  6.7.8.9.0.a. .b.c.d.e.f.g.h.  ",
"  ( i.j.k.l.m. . .,.n.o.p.q.r.  ",
"    s.t.  u.v.w. .x.y.z.A.r.    ",
"      B.C.  D.E.F.G.  H.r.      ",
"            I.J.K.L.A.          "};
